# xmcd
#
# Track frame offsets:
#	150
#	11011
#	25797
#	42983
#	56352
#	70429
#	84579
#	98914
#	113425
#	125154
#	137581
#	150400
#	163270
#	176703
#
# Disc length: 2547
#
# Revision: 1
# Processed by: cddbd v1.5.1PL0 Copyright (c) Steve Scherf et al.
# Submitted via: FreeRIP 2.00 
# Normalized: r0:TDELIM( - )
#
DISCID=b509f10e
DTITLE=J. Yancey, A. Ammos, Pine Top Smith - Shout For Joy
DYEAR=1999
DGENRE=Jazz
TTITLE0=Albert Ammons - Shout For Joy
TTITLE1=Meade Lux Lewis - Yancey Special
TTITLE2=Jimmy Yancey - Midnight Stomp
TTITLE3=Pete Johnson - Basement Boogie
TTITLE4=Cow Cow Daven Port - Cow Cow Blues
TTITLE5=Pine Top Smith - Pine Top's Boogie Woogie
TTITLE6=Speckled Red - The Dirty Dozen
TTITLE7=Clarence Lofton - I Don't Know
TTITLE8=Jay McShann - Vine Street Boogie
TTITLE9=Earl Hines - Boogie Woogie On St. Louis
TTITLE10=Jimmy Yancey - Yancey Stomp
TTITLE11=Meade Lux Lewis - Honkey Tonk Train Blues
TTITLE12=Albert Ammos - Boogie Woogie Stomp
TTITLE13=Pete Johnson - Blues On The Downbeat
EXTD=piano jazz and blues
EXTT0=
EXTT1=
EXTT2=
EXTT3=
EXTT4=
EXTT5=
EXTT6=
EXTT7=
EXTT8=
EXTT9=
EXTT10=
EXTT11=
EXTT12=
EXTT13=
PLAYORDER=
